<svg width="172" height="77" viewBox="0 0 172 77" fill="none" xmlns="http://www.w3.org/2000/svg">
<g clip-path="url(#clip0_35_5)">
<path d="M45.4452 71.1597C43.8976 73.7832 40.1024 73.7832 38.5548 71.1597L4.85529 14.0323C3.28233 11.3659 5.20465 8 8.30052 8L75.6995 8C78.7954 8 80.7177 11.3659 79.1447 14.0323L45.4452 71.1597Z" fill="#256BF4"/>
<path d="M45.4938 47.8752C43.9684 50.6118 40.0316 50.6118 38.5062 47.8752L17.6026 10.3762C16.1164 7.70995 18.044 4.42857 21.0965 4.42857L62.9035 4.42857C65.956 4.42857 67.8836 7.70996 66.3974 10.3762L45.4938 47.8752Z" fill="#181818"/>
<path d="M40.2133 21.8533H42.2733V26.6533C42.2733 27.36 43.1533 27.6933 43.62 27.16L48.6667 21.4266C49.1067 20.9266 48.7533 20.1466 48.0867 20.1466H46.0267V15.3466C46.0267 14.64 45.1467 14.3066 44.68 14.84L39.6333 20.5733C39.2 21.0733 39.5533 21.8533 40.2133 21.8533Z" stroke="#256BF4" stroke-width="1.5" stroke-miterlimit="10" stroke-linecap="round" stroke-linejoin="round"/>
<path d="M39.6667 15.6667H35" stroke="#256BF4" stroke-width="1.5" stroke-miterlimit="10" stroke-linecap="round" stroke-linejoin="round"/>
<path d="M39 26.3333H35" stroke="#256BF4" stroke-width="1.5" stroke-miterlimit="10" stroke-linecap="round" stroke-linejoin="round"/>
<path d="M37 21H35" stroke="#256BF4" stroke-width="1.5" stroke-miterlimit="10" stroke-linecap="round" stroke-linejoin="round"/>
<path d="M97.2539 33.5C97.2539 33.2109 97.2109 32.9531 97.125 32.7266C97.0391 32.4922 96.8828 32.2773 96.6562 32.082C96.4297 31.8867 96.1094 31.6914 95.6953 31.4961C95.2812 31.293 94.7383 31.0859 94.0664 30.875C93.3008 30.625 92.5703 30.3438 91.875 30.0312C91.1875 29.7109 90.5742 29.3398 90.0352 28.918C89.4961 28.4961 89.0703 28.0039 88.7578 27.4414C88.4531 26.8789 88.3008 26.2227 88.3008 25.4727C88.3008 24.7461 88.4609 24.0898 88.7812 23.5039C89.1016 22.918 89.5508 22.418 90.1289 22.0039C90.707 21.582 91.3867 21.2617 92.168 21.043C92.9492 20.8164 93.8086 20.7031 94.7461 20.7031C95.9961 20.7031 97.0938 20.9258 98.0391 21.3711C98.9922 21.8086 99.7344 22.4258 100.266 23.2227C100.797 24.0117 101.062 24.9297 101.062 25.9766H97.2656C97.2656 25.5156 97.168 25.1094 96.9727 24.7578C96.7852 24.3984 96.4961 24.1172 96.1055 23.9141C95.7227 23.7109 95.2422 23.6094 94.6641 23.6094C94.1016 23.6094 93.6289 23.6953 93.2461 23.8672C92.8711 24.0312 92.5859 24.2578 92.3906 24.5469C92.2031 24.8359 92.1094 25.1523 92.1094 25.4961C92.1094 25.7695 92.1797 26.0195 92.3203 26.2461C92.4688 26.4648 92.6797 26.6719 92.9531 26.8672C93.2344 27.0547 93.5781 27.2344 93.9844 27.4062C94.3906 27.5781 94.8555 27.7422 95.3789 27.8984C96.293 28.1875 97.1016 28.5078 97.8047 28.8594C98.5156 29.2109 99.1133 29.6094 99.5977 30.0547C100.082 30.5 100.445 31.0039 100.688 31.5664C100.938 32.1289 101.062 32.7656 101.062 33.4766C101.062 34.2344 100.914 34.9062 100.617 35.4922C100.328 36.0781 99.9062 36.5781 99.3516 36.9922C98.8047 37.3984 98.1484 37.707 97.3828 37.918C96.6172 38.1289 95.7617 38.2344 94.8164 38.2344C93.957 38.2344 93.1094 38.125 92.2734 37.9062C91.4375 37.6797 90.6797 37.3359 90 36.875C89.3281 36.4141 88.7891 35.8281 88.3828 35.1172C87.9844 34.3984 87.7852 33.5469 87.7852 32.5625H91.6055C91.6055 33.0781 91.6797 33.5156 91.8281 33.875C91.9766 34.2266 92.1875 34.5117 92.4609 34.7305C92.7422 34.9492 93.082 35.1055 93.4805 35.1992C93.8789 35.293 94.3242 35.3398 94.8164 35.3398C95.3867 35.3398 95.8477 35.2617 96.1992 35.1055C96.5586 34.9414 96.8242 34.7188 96.9961 34.4375C97.168 34.1562 97.2539 33.8438 97.2539 33.5ZM109.102 38.2344C108.094 38.2344 107.191 38.0742 106.395 37.7539C105.598 37.4336 104.922 36.9922 104.367 36.4297C103.82 35.8594 103.402 35.2031 103.113 34.4609C102.824 33.7188 102.68 32.9258 102.68 32.082V31.6367C102.68 30.6914 102.812 29.8203 103.078 29.0234C103.344 28.2266 103.73 27.5352 104.238 26.9492C104.754 26.3555 105.387 25.8984 106.137 25.5781C106.887 25.25 107.742 25.0859 108.703 25.0859C109.602 25.0859 110.402 25.2344 111.105 25.5312C111.809 25.8203 112.402 26.2383 112.887 26.7852C113.371 27.3242 113.738 27.9766 113.988 28.7422C114.246 29.5 114.375 30.3516 114.375 31.2969V32.7969H104.156V30.4414H110.789V30.1602C110.789 29.7148 110.707 29.3242 110.543 28.9883C110.387 28.6523 110.152 28.3945 109.84 28.2148C109.535 28.0273 109.148 27.9336 108.68 27.9336C108.234 27.9336 107.863 28.0273 107.566 28.2148C107.27 28.4023 107.031 28.668 106.852 29.0117C106.68 29.3477 106.555 29.7422 106.477 30.1953C106.398 30.6406 106.359 31.1211 106.359 31.6367V32.082C106.359 32.5742 106.426 33.0234 106.559 33.4297C106.691 33.8359 106.887 34.1836 107.145 34.4727C107.402 34.7617 107.715 34.9883 108.082 35.1523C108.449 35.3164 108.867 35.3984 109.336 35.3984C109.914 35.3984 110.465 35.2891 110.988 35.0703C111.512 34.8438 111.965 34.4922 112.348 34.0156L114.059 35.9727C113.801 36.3477 113.438 36.7109 112.969 37.0625C112.508 37.4062 111.953 37.6875 111.305 37.9062C110.656 38.125 109.922 38.2344 109.102 38.2344ZM120.012 25.3203V38H116.344V25.3203H120.012ZM116.121 22.0391C116.121 21.5078 116.309 21.0742 116.684 20.7383C117.059 20.3945 117.551 20.2227 118.16 20.2227C118.77 20.2227 119.262 20.3945 119.637 20.7383C120.02 21.0742 120.211 21.5078 120.211 22.0391C120.211 22.5625 120.02 22.9961 119.637 23.3398C119.262 23.6758 118.77 23.8438 118.16 23.8438C117.551 23.8438 117.059 23.6758 116.684 23.3398C116.309 22.9961 116.121 22.5625 116.121 22.0391ZM127.207 38H123.527V24.2422C123.527 23.2656 123.719 22.4453 124.102 21.7812C124.492 21.1172 125.043 20.6133 125.754 20.2695C126.465 19.9258 127.305 19.7539 128.273 19.7539C128.609 19.7539 128.922 19.7773 129.211 19.8242C129.508 19.8633 129.797 19.918 130.078 19.9883V22.7188C129.93 22.6797 129.777 22.6523 129.621 22.6367C129.465 22.6211 129.277 22.6133 129.059 22.6133C128.668 22.6133 128.332 22.6758 128.051 22.8008C127.777 22.918 127.566 23.1016 127.418 23.3516C127.277 23.5938 127.207 23.8906 127.207 24.2422V38ZM129.715 25.3203V27.8867H121.676V25.3203H129.715ZM152.355 28.9883V35.8672C152.074 36.1875 151.645 36.5312 151.066 36.8984C150.496 37.2656 149.766 37.582 148.875 37.8477C147.984 38.1055 146.922 38.2344 145.688 38.2344C144.57 38.2344 143.555 38.0547 142.641 37.6953C141.727 37.3281 140.941 36.793 140.285 36.0898C139.629 35.3789 139.121 34.5117 138.762 33.4883C138.41 32.4648 138.234 31.293 138.234 29.9727V28.9648C138.234 27.6445 138.41 26.4727 138.762 25.4492C139.113 24.4258 139.609 23.5625 140.25 22.8594C140.891 22.1484 141.652 21.6094 142.535 21.2422C143.418 20.875 144.395 20.6914 145.465 20.6914C146.988 20.6914 148.234 20.9375 149.203 21.4297C150.172 21.9141 150.906 22.5859 151.406 23.4453C151.914 24.3047 152.227 25.293 152.344 26.4102H148.664C148.586 25.8398 148.43 25.3477 148.195 24.9336C147.969 24.5195 147.645 24.2031 147.223 23.9844C146.801 23.7578 146.254 23.6445 145.582 23.6445C145.043 23.6445 144.555 23.7578 144.117 23.9844C143.688 24.2031 143.324 24.5352 143.027 24.9805C142.73 25.4258 142.504 25.9805 142.348 26.6445C142.191 27.3008 142.113 28.0664 142.113 28.9414V29.9727C142.113 30.8477 142.191 31.6172 142.348 32.2812C142.512 32.9453 142.75 33.5 143.062 33.9453C143.375 34.3828 143.77 34.7148 144.246 34.9414C144.73 35.168 145.293 35.2812 145.934 35.2812C146.434 35.2812 146.855 35.2422 147.199 35.1641C147.543 35.0781 147.824 34.9727 148.043 34.8477C148.262 34.7148 148.426 34.5938 148.535 34.4844V31.6484H145.5V28.9883H152.355ZM158.355 20V38H154.699V20H158.355ZM157.875 31.2148L156.961 31.2383C156.961 30.3477 157.07 29.5312 157.289 28.7891C157.516 28.0391 157.836 27.3867 158.25 26.832C158.664 26.2773 159.16 25.8477 159.738 25.543C160.324 25.2383 160.969 25.0859 161.672 25.0859C162.297 25.0859 162.867 25.1758 163.383 25.3555C163.898 25.5352 164.344 25.8203 164.719 26.2109C165.094 26.6016 165.383 27.1133 165.586 27.7461C165.789 28.3789 165.891 29.1484 165.891 30.0547V38H162.211V30.0312C162.211 29.4922 162.133 29.0703 161.977 28.7656C161.828 28.4609 161.609 28.2461 161.32 28.1211C161.039 27.9961 160.695 27.9336 160.289 27.9336C159.812 27.9336 159.418 28.0195 159.105 28.1914C158.793 28.3555 158.547 28.5859 158.367 28.8828C158.188 29.1797 158.059 29.5273 157.98 29.9258C157.91 30.3242 157.875 30.7539 157.875 31.2148Z" fill="#181818"/>
<path d="M131.496 36.2656C131.496 35.7344 131.684 35.2891 132.059 34.9297C132.441 34.5703 132.938 34.3906 133.547 34.3906C134.164 34.3906 134.656 34.5703 135.023 34.9297C135.398 35.2891 135.586 35.7344 135.586 36.2656C135.586 36.7891 135.398 37.2305 135.023 37.5898C134.656 37.9492 134.164 38.1289 133.547 38.1289C132.938 38.1289 132.441 37.9492 132.059 37.5898C131.684 37.2305 131.496 36.7891 131.496 36.2656Z" fill="#256BF4"/>
<path d="M91.0488 45.0469V55H88.8203V45.0469H91.0488ZM94.9658 49.2441V50.9668H90.4268V49.2441H94.9658ZM95.4033 45.0469V46.7764H90.4268V45.0469H95.4033ZM100.065 53.2363V50.0645C100.065 49.8411 100.031 49.6497 99.9629 49.4902C99.8945 49.3307 99.7874 49.2054 99.6416 49.1143C99.4958 49.0231 99.3066 48.9775 99.0742 48.9775C98.8783 48.9775 98.7074 49.0117 98.5615 49.0801C98.4202 49.1484 98.3109 49.2464 98.2334 49.374C98.1605 49.5016 98.124 49.6589 98.124 49.8457H95.9912C95.9912 49.513 96.0664 49.2031 96.2168 48.916C96.3672 48.6289 96.5814 48.376 96.8594 48.1572C97.1419 47.9385 97.4792 47.7699 97.8711 47.6514C98.263 47.5283 98.7028 47.4668 99.1904 47.4668C99.7692 47.4668 100.284 47.5648 100.735 47.7607C101.191 47.9521 101.551 48.2415 101.815 48.6289C102.08 49.0117 102.212 49.4948 102.212 50.0781V53.1748C102.212 53.6214 102.237 53.9723 102.287 54.2275C102.342 54.4782 102.419 54.6969 102.52 54.8838V55H100.366C100.266 54.7858 100.191 54.5215 100.141 54.207C100.09 53.888 100.065 53.5645 100.065 53.2363ZM100.332 50.4883L100.346 51.6641H99.2861C99.0492 51.6641 98.8441 51.6937 98.6709 51.7529C98.5023 51.8122 98.3656 51.8942 98.2607 51.999C98.1559 52.0993 98.0785 52.2178 98.0283 52.3545C97.9827 52.4867 97.96 52.6325 97.96 52.792C97.96 52.9424 97.9964 53.0791 98.0693 53.2021C98.1423 53.3206 98.2425 53.4141 98.3701 53.4824C98.4977 53.5508 98.6458 53.585 98.8145 53.585C99.0924 53.585 99.3294 53.5303 99.5254 53.4209C99.7259 53.3115 99.8809 53.1794 99.9902 53.0244C100.1 52.8649 100.154 52.7168 100.154 52.5801L100.667 53.4688C100.585 53.651 100.485 53.8402 100.366 54.0361C100.248 54.2275 100.097 54.4076 99.915 54.5762C99.7327 54.7402 99.5117 54.8747 99.252 54.9795C98.9967 55.0843 98.6891 55.1367 98.3291 55.1367C97.8643 55.1367 97.4427 55.0433 97.0645 54.8564C96.6862 54.665 96.3831 54.403 96.1553 54.0703C95.932 53.7376 95.8203 53.3548 95.8203 52.9219C95.8203 52.5345 95.891 52.1904 96.0322 51.8896C96.1735 51.5889 96.3854 51.3337 96.668 51.124C96.9551 50.9144 97.3151 50.7572 97.748 50.6523C98.181 50.543 98.6868 50.4883 99.2656 50.4883H100.332ZM107.551 52.9424C107.551 52.8057 107.507 52.6849 107.421 52.5801C107.339 52.4753 107.188 52.3796 106.97 52.293C106.756 52.2064 106.452 52.1198 106.061 52.0332C105.691 51.9557 105.347 51.8555 105.028 51.7324C104.709 51.6048 104.431 51.4521 104.194 51.2744C103.957 51.0921 103.773 50.8779 103.641 50.6318C103.508 50.3812 103.442 50.0964 103.442 49.7773C103.442 49.4674 103.508 49.1735 103.641 48.8955C103.777 48.6175 103.973 48.3714 104.229 48.1572C104.488 47.943 104.803 47.7744 105.172 47.6514C105.546 47.5283 105.969 47.4668 106.443 47.4668C107.095 47.4668 107.658 47.5693 108.132 47.7744C108.606 47.9749 108.97 48.2575 109.226 48.6221C109.481 48.9821 109.608 49.3945 109.608 49.8594H107.476C107.476 49.668 107.439 49.5016 107.366 49.3604C107.293 49.2191 107.182 49.1097 107.031 49.0322C106.881 48.9502 106.683 48.9092 106.437 48.9092C106.245 48.9092 106.076 48.9434 105.931 49.0117C105.789 49.0755 105.678 49.1644 105.596 49.2783C105.518 49.3923 105.479 49.5244 105.479 49.6748C105.479 49.7796 105.502 49.8753 105.548 49.9619C105.598 50.0439 105.673 50.1214 105.773 50.1943C105.878 50.2627 106.013 50.3242 106.177 50.3789C106.345 50.4336 106.55 50.486 106.792 50.5361C107.307 50.6318 107.776 50.7663 108.2 50.9395C108.629 51.1126 108.97 51.3519 109.226 51.6572C109.485 51.9626 109.615 52.3659 109.615 52.8672C109.615 53.1953 109.54 53.4961 109.39 53.7695C109.244 54.043 109.032 54.2822 108.754 54.4873C108.476 54.6924 108.143 54.8519 107.756 54.9658C107.368 55.0798 106.931 55.1367 106.443 55.1367C105.746 55.1367 105.156 55.0114 104.673 54.7607C104.19 54.5101 103.825 54.1956 103.579 53.8174C103.338 53.4346 103.217 53.0426 103.217 52.6416H105.22C105.229 52.8877 105.29 53.0882 105.404 53.2432C105.523 53.3981 105.675 53.512 105.862 53.585C106.049 53.6533 106.259 53.6875 106.491 53.6875C106.724 53.6875 106.917 53.6556 107.072 53.5918C107.227 53.528 107.346 53.4414 107.428 53.332C107.51 53.2181 107.551 53.0882 107.551 52.9424ZM114.564 47.6035V49.1006H110.176V47.6035H114.564ZM111.181 45.7715H113.32V52.6826C113.32 52.8877 113.345 53.0449 113.396 53.1543C113.446 53.2637 113.528 53.3411 113.642 53.3867C113.756 53.4277 113.901 53.4482 114.079 53.4482C114.207 53.4482 114.316 53.4437 114.407 53.4346C114.498 53.4255 114.583 53.4141 114.66 53.4004V54.9453C114.478 55.0046 114.284 55.0501 114.079 55.082C113.874 55.1185 113.651 55.1367 113.409 55.1367C112.949 55.1367 112.55 55.0615 112.213 54.9111C111.88 54.7607 111.625 54.5238 111.447 54.2002C111.27 53.8721 111.181 53.446 111.181 52.9219V45.7715ZM123.321 46.9404L120.751 55H118.372L122.057 45.0469H123.561L123.321 46.9404ZM125.454 55L122.877 46.9404L122.61 45.0469H124.135L127.833 55H125.454ZM125.345 51.2949V53.0176H120.156V51.2949H125.345ZM132.857 53.3457V44.5H135.004V55H133.076L132.857 53.3457ZM128.25 51.3906V51.2471C128.25 50.6865 128.312 50.1761 128.435 49.7158C128.562 49.251 128.747 48.8522 128.988 48.5195C129.234 48.1823 129.537 47.9225 129.897 47.7402C130.257 47.5579 130.67 47.4668 131.135 47.4668C131.563 47.4668 131.937 47.5625 132.256 47.7539C132.575 47.9408 132.846 48.2051 133.069 48.5469C133.297 48.8841 133.482 49.2829 133.623 49.7432C133.764 50.1989 133.871 50.6934 133.944 51.2266V51.4727C133.876 51.9831 133.769 52.4593 133.623 52.9014C133.482 53.3434 133.297 53.7331 133.069 54.0703C132.846 54.403 132.573 54.665 132.249 54.8564C131.93 55.0433 131.554 55.1367 131.121 55.1367C130.656 55.1367 130.244 55.0433 129.884 54.8564C129.528 54.6696 129.23 54.4076 128.988 54.0703C128.747 53.7331 128.562 53.3366 128.435 52.8809C128.312 52.4251 128.25 51.9284 128.25 51.3906ZM130.383 51.2471V51.3906C130.383 51.6823 130.403 51.9535 130.444 52.2041C130.49 52.4548 130.563 52.6758 130.663 52.8672C130.763 53.0586 130.896 53.209 131.06 53.3184C131.224 53.4232 131.424 53.4756 131.661 53.4756C131.98 53.4756 132.242 53.4027 132.447 53.2568C132.652 53.1064 132.807 52.8991 132.912 52.6348C133.017 52.3704 133.072 52.0628 133.076 51.7119V50.9941C133.076 50.7025 133.047 50.4404 132.987 50.208C132.928 49.9756 132.839 49.7796 132.721 49.6201C132.607 49.4606 132.463 49.3398 132.29 49.2578C132.117 49.1712 131.912 49.1279 131.675 49.1279C131.442 49.1279 131.244 49.1826 131.08 49.292C130.916 49.3968 130.782 49.5449 130.677 49.7363C130.576 49.9277 130.501 50.1533 130.451 50.4131C130.406 50.6683 130.383 50.9463 130.383 51.2471ZM138.565 49.1553V55H136.433V47.6035H138.436L138.565 49.1553ZM138.292 51.042L137.752 51.0557C137.752 50.5361 137.813 50.0599 137.937 49.627C138.064 49.1895 138.249 48.8089 138.49 48.4854C138.732 48.1618 139.03 47.9111 139.386 47.7334C139.746 47.5557 140.16 47.4668 140.63 47.4668C140.958 47.4668 141.257 47.5169 141.525 47.6172C141.794 47.7129 142.024 47.8656 142.216 48.0752C142.412 48.2803 142.562 48.5492 142.667 48.8818C142.772 49.21 142.824 49.6042 142.824 50.0645V55H140.691V50.3242C140.691 49.9961 140.65 49.7477 140.568 49.5791C140.491 49.4059 140.377 49.2874 140.227 49.2236C140.076 49.1598 139.896 49.1279 139.687 49.1279C139.459 49.1279 139.256 49.1781 139.078 49.2783C138.905 49.374 138.759 49.5085 138.641 49.6816C138.522 49.8548 138.433 50.0576 138.374 50.29C138.319 50.5225 138.292 50.7731 138.292 51.042ZM142.605 50.9326L141.929 50.9873C141.929 50.486 141.988 50.0212 142.106 49.5928C142.225 49.1644 142.403 48.793 142.64 48.4785C142.877 48.1595 143.171 47.9111 143.521 47.7334C143.877 47.5557 144.289 47.4668 144.759 47.4668C145.105 47.4668 145.42 47.5169 145.702 47.6172C145.989 47.7174 146.235 47.8792 146.44 48.1025C146.65 48.3258 146.812 48.6198 146.926 48.9844C147.04 49.3444 147.097 49.7865 147.097 50.3105V55H144.95V50.3105C144.95 49.987 144.909 49.7409 144.827 49.5723C144.75 49.4036 144.636 49.2874 144.485 49.2236C144.34 49.1598 144.164 49.1279 143.959 49.1279C143.731 49.1279 143.533 49.1758 143.364 49.2715C143.196 49.3626 143.054 49.4902 142.94 49.6543C142.826 49.8138 142.742 50.0029 142.688 50.2217C142.633 50.4404 142.605 50.6774 142.605 50.9326ZM150.774 47.6035V55H148.635V47.6035H150.774ZM148.505 45.6895C148.505 45.3796 148.614 45.1266 148.833 44.9307C149.052 44.7301 149.339 44.6299 149.694 44.6299C150.05 44.6299 150.337 44.7301 150.556 44.9307C150.779 45.1266 150.891 45.3796 150.891 45.6895C150.891 45.9948 150.779 46.2477 150.556 46.4482C150.337 46.6442 150.05 46.7422 149.694 46.7422C149.339 46.7422 149.052 46.6442 148.833 46.4482C148.614 46.2477 148.505 45.9948 148.505 45.6895ZM154.404 49.1826V55H152.265V47.6035H154.274L154.404 49.1826ZM154.124 51.042L153.591 51.0557C153.591 50.4997 153.659 50.0007 153.796 49.5586C153.933 49.1165 154.126 48.7406 154.377 48.4307C154.632 48.1162 154.935 47.877 155.286 47.7129C155.642 47.5488 156.034 47.4668 156.462 47.4668C156.808 47.4668 157.125 47.5169 157.412 47.6172C157.699 47.7174 157.945 47.8792 158.15 48.1025C158.36 48.3213 158.52 48.613 158.629 48.9775C158.738 49.3376 158.793 49.7819 158.793 50.3105V55H156.646V50.3037C156.646 49.9938 156.603 49.7546 156.517 49.5859C156.43 49.4173 156.302 49.2988 156.134 49.2305C155.97 49.1621 155.769 49.1279 155.532 49.1279C155.282 49.1279 155.067 49.1781 154.89 49.2783C154.712 49.374 154.566 49.5085 154.452 49.6816C154.338 49.8548 154.254 50.0576 154.199 50.29C154.149 50.5225 154.124 50.7731 154.124 51.042Z" fill="#256BF4"/>
</g>
<defs>
<clipPath id="clip0_35_5">
<rect width="172" height="77" fill="white"/>
</clipPath>
</defs>
</svg>
